<?xml version="1.0" standalone="no"?>
<!DOCTYPE svg PUBLIC "-//W3C//DTD SVG 20010904//EN"
 "http://www.w3.org/TR/2001/REC-SVG-20010904/DTD/svg10.dtd">
<svg version="1.0" xmlns="http://www.w3.org/2000/svg"
 width="1866.000000pt" height="1866.000000pt" viewBox="0 0 1866.000000 1866.000000"
 preserveAspectRatio="xMidYMid meet">
<metadata>
Created by potrace 1.11, written by Peter Selinger 2001-2013
</metadata>
<g transform="translate(0.000000,1866.000000) scale(0.100000,-0.100000)"
fill="#000000" stroke="none">
<path d="M1100 13143 c0 -4 -44 -7 -97 -6 -54 1 -107 0 -118 -2 -20 -4 -20
-12 -20 -913 l0 -909 293 0 c161 0 295 -3 299 -7 8 -8 11 -3954 3 -3964 -8
-11 -204 -8 -212 3 -5 7 -8 7 -8 0 0 -11 -159 -13 -177 -2 -5 4 -13 3 -17 -1
-4 -3 -42 -7 -84 -7 -56 0 -76 -4 -75 -13 2 -6 -2 -12 -8 -12 -5 0 -7 -5 -4
-11 11 -17 13 -59 3 -59 -5 0 -5 -8 0 -17 4 -10 7 -54 5 -98 -1 -44 -3 -84 -3
-90 0 -5 0 -50 0 -100 0 -49 0 -97 0 -105 0 -8 1 -39 3 -67 1 -29 -1 -53 -6
-53 -4 0 -5 -5 -1 -12 10 -16 12 -128 2 -128 -5 0 -6 -5 -2 -12 11 -17 12
-189 2 -210 -5 -10 -5 -18 -1 -18 10 0 9 -143 -1 -158 -3 -6 -3 -13 1 -15 5
-3 7 -56 6 -119 -2 -62 -3 -117 -3 -123 0 -5 1 -54 3 -107 1 -54 -1 -98 -6
-98 -4 0 -5 -5 -2 -11 11 -17 13 -59 3 -59 -5 0 -6 -5 -2 -12 4 -6 8 -35 8
-62 l1 -51 2065 0 2065 0 0 895 c0 492 -1 903 -3 912 -3 13 -14 16 -54 14 -27
-1 -52 2 -55 6 -2 5 -10 5 -16 1 -14 -11 -188 -10 -205 1 -7 4 -12 3 -12 -1 0
-11 -132 -9 -148 1 -7 4 -12 3 -12 -2 0 -16 -90 -8 -95 8 -2 8 -4 903 -3 1988
0 1686 2 1972 14 1973 8 0 142 1 298 1 200 1 286 4 288 12 4 10 2 1790 -1
1807 -1 8 -71 17 -71 9 0 -3 -52 -5 -115 -5 -63 0 -115 4 -115 8 0 5 -5 5 -11
1 -15 -9 -373 -9 -388 0 -6 4 -11 4 -11 -1 0 -4 -52 -8 -115 -8 -63 0 -115 4
-115 8 0 5 -5 5 -11 1 -15 -9 -373 -9 -388 0 -6 4 -11 4 -11 -1 0 -4 -52 -8
-115 -8 -63 0 -115 4 -115 8 0 5 -5 5 -11 1 -15 -9 -373 -9 -388 0 -6 4 -11 4
-11 -1 0 -4 -52 -8 -115 -8 -63 0 -115 4 -115 8 0 5 -5 5 -11 1 -15 -9 -373
-9 -388 0 -6 4 -11 4 -11 -1 0 -4 -52 -8 -115 -8 -63 0 -115 4 -115 8 0 5 -5
5 -11 1 -15 -9 -373 -9 -388 0 -6 4 -11 4 -11 -1 0 -4 -52 -8 -115 -8 -63 0
-115 4 -115 8 0 5 -5 5 -11 1 -15 -9 -373 -9 -388 0 -6 4 -11 4 -11 -1z"/>
<path d="M5922 13141 c-7 -4 -31 -6 -55 -4 l-42 3 1 -907 c1 -500 2 -911 3
-914 0 -4 133 -7 294 -7 160 0 298 -1 306 -1 7 -1 -4 -17 -25 -36 -22 -20 -83
-77 -138 -128 -54 -51 -113 -105 -131 -122 -54 -50 -224 -207 -275 -255 -26
-25 -99 -92 -161 -150 -62 -58 -132 -123 -155 -145 -23 -22 -86 -80 -140 -130
-128 -119 -178 -165 -241 -226 -29 -27 -53 -47 -53 -42 0 4 -8 -4 -17 -17 -9
-14 -24 -30 -33 -37 -9 -7 -44 -38 -78 -71 -34 -32 -96 -89 -138 -128 -42 -38
-100 -91 -129 -119 -29 -27 -87 -81 -129 -120 -42 -38 -76 -74 -76 -79 0 -4
10 -20 23 -35 12 -15 31 -40 42 -55 11 -16 25 -33 30 -40 14 -15 86 -108 110
-142 11 -15 35 -46 53 -68 43 -55 36 -46 136 -176 49 -63 103 -134 119 -157
17 -24 35 -43 40 -43 4 0 5 -4 2 -10 -3 -5 -2 -10 4 -10 5 0 18 -15 30 -32 11
-18 28 -42 38 -53 10 -11 38 -47 64 -80 25 -33 83 -109 129 -170 46 -60 95
-124 109 -141 14 -17 35 -44 46 -59 11 -16 25 -33 30 -39 6 -6 46 -58 89 -116
44 -58 86 -112 93 -120 7 -8 32 -41 55 -72 23 -32 45 -58 50 -58 4 0 8 -5 8
-11 0 -6 12 -26 28 -45 15 -18 36 -45 47 -60 11 -14 31 -40 45 -58 15 -17 57
-73 95 -123 39 -51 73 -93 78 -93 4 0 7 -7 7 -15 0 -8 3 -15 8 -15 7 0 45 -61
43 -70 -2 -9 -111 -5 -111 5 0 7 -3 7 -8 0 -9 -13 -185 -13 -194 0 -5 6 -8 5
-8 -2 0 -7 -7 -10 -15 -7 -12 5 -15 -5 -15 -57 -1 -86 -1 -1661 0 -1721 l0
-46 3350 0 3350 0 0 52 c4 446 0 1758 -5 1766 -4 6 -12 9 -18 7 -7 -2 -22 0
-34 4 -12 5 -24 5 -27 1 -5 -9 -380 -7 -395 2 -6 4 -11 4 -11 -1 0 -8 -79 -12
-81 -3 -6 29 -4 88 4 98 5 6 6 12 1 12 -5 0 -9 259 -9 585 0 512 2 586 15 589
8 2 219 3 467 2 441 -1 453 -2 466 -21 8 -11 43 -76 79 -145 36 -69 81 -154
100 -190 19 -36 50 -93 68 -128 17 -34 36 -65 41 -68 5 -3 7 -9 4 -14 -3 -4 2
-13 10 -20 8 -7 12 -16 9 -21 -3 -5 -2 -9 3 -9 4 0 14 -15 22 -32 8 -18 25
-50 38 -70 13 -21 20 -38 16 -38 -5 0 -3 -4 2 -8 6 -4 28 -41 49 -82 22 -41
53 -100 69 -130 16 -30 41 -77 55 -105 13 -27 32 -58 40 -67 8 -10 12 -18 7
-18 -4 0 -3 -6 3 -12 11 -14 57 -99 131 -243 25 -49 48 -92 51 -95 5 -5 54
-97 122 -230 18 -36 35 -67 38 -70 3 -3 23 -39 44 -80 22 -41 44 -78 50 -82 6
-4 7 -8 3 -8 -4 0 5 -24 21 -52 16 -29 47 -87 69 -128 22 -41 58 -109 81 -150
22 -41 59 -111 82 -155 24 -44 57 -107 75 -140 17 -33 53 -100 80 -150 26 -49
64 -121 85 -160 21 -38 53 -98 71 -131 l33 -62 1371 0 1372 0 -1 912 -1 911
-96 1 c-53 1 -102 4 -108 8 -6 4 -11 4 -11 -1 0 -4 -74 -8 -165 -8 -119 0
-165 3 -165 12 0 6 -4 13 -9 15 -7 3 -91 135 -91 143 0 2 -27 47 -60 99 -33
53 -60 100 -60 106 0 5 -4 10 -10 10 -5 0 -10 4 -10 10 0 5 -16 34 -35 64 -19
30 -35 60 -35 66 0 5 -4 10 -9 10 -5 0 -14 14 -21 30 -7 17 -16 30 -21 30 -5
0 -9 9 -9 20 0 11 -4 20 -10 20 -5 0 -12 11 -16 25 -3 14 -10 25 -15 25 -5 0
-9 4 -9 10 0 5 -17 36 -37 67 -53 83 -73 116 -79 136 -4 9 -10 17 -15 17 -5 0
-9 4 -9 9 0 4 -54 97 -120 206 -66 109 -120 200 -120 203 0 3 -10 19 -23 36
-12 17 -31 48 -42 69 -11 20 -22 37 -25 37 -3 0 -12 15 -20 33 -7 17 -18 37
-22 42 -18 21 -116 190 -113 195 2 3 47 27 99 54 53 27 96 53 96 58 0 4 9 8
19 8 11 0 21 4 23 8 2 5 26 23 53 42 28 18 52 36 55 39 3 4 23 19 45 36 36 26
244 231 271 266 79 105 131 181 172 250 53 90 124 236 125 257 0 6 4 12 9 12
4 0 8 6 8 14 0 8 5 27 12 43 6 15 12 30 13 33 1 3 7 25 15 50 7 25 15 50 16
55 16 53 32 130 28 137 -3 4 0 8 5 8 6 0 10 3 9 8 -2 8 12 118 19 147 9 37 11
428 3 451 -6 14 -5 26 1 29 5 4 6 12 2 18 -4 7 -8 17 -9 22 -1 6 -4 30 -8 55
-3 25 -8 63 -12 85 -3 22 -8 47 -11 55 -3 8 -7 22 -8 30 -5 34 -14 68 -34 129
-11 36 -18 68 -15 73 3 4 0 8 -5 8 -6 0 -11 7 -11 15 0 8 -4 23 -9 33 -5 9
-28 62 -52 117 -24 55 -46 102 -49 105 -3 3 -16 25 -29 50 -115 218 -330 463
-578 660 -104 83 -314 204 -463 268 -30 13 -64 28 -75 33 -56 25 -327 110
-380 118 -3 0 -15 3 -28 6 -12 3 -33 7 -47 9 -14 3 -34 7 -45 9 -11 3 -54 10
-95 17 -41 6 -86 14 -100 16 -25 5 -46 8 -125 19 -22 3 -51 7 -65 9 -14 3 -47
7 -75 10 -27 3 -70 8 -95 11 -100 11 -221 21 -385 30 -38 2 -70 4 -70 5 0 1
-38 3 -85 5 -47 2 -134 7 -195 10 -60 3 -175 7 -255 10 -80 2 -145 4 -145 5 0
0 -129 2 -287 3 -159 1 -288 6 -288 10 0 5 -5 5 -11 1 -16 -9 -140 -11 -145
-2 -3 4 -15 4 -27 0 -24 -8 -130 -7 -153 2 -8 3 -14 2 -14 -2 0 -4 -52 -7
-115 -7 -63 0 -115 3 -115 7 0 4 -7 5 -16 1 -23 -8 -345 -9 -351 0 -2 4 -12 4
-21 -1 -14 -6 -116 -8 -132 -2 -14 5 -50 6 -50 1 0 -3 -37 -5 -82 -4 -90 3
-139 3 -178 0 -14 -2 -33 1 -42 6 -10 4 -18 4 -18 0 0 -4 -37 -7 -82 -6 -46 2
-99 3 -118 2 -19 0 -79 -1 -133 -2 -55 -1 -101 1 -104 6 -2 4 -9 4 -15 1 -14
-9 -139 -11 -144 -2 -2 3 -17 3 -32 -1 -30 -7 -135 -6 -158 3 -8 3 -14 2 -14
-2 0 -4 -52 -7 -115 -7 -63 0 -115 3 -115 7 0 4 -7 5 -16 1 -23 -8 -345 -9
-351 0 -2 4 -12 4 -21 -1 -14 -6 -115 -8 -132 -2 -13 4 -80 4 -80 0 0 -3 -43
-3 -96 0 -54 3 -99 1 -105 -4 -6 -6 -9 -6 -9 0 0 5 -26 8 -57 7 -63 -2 -146
-3 -178 -2 -19 0 -239 1 -260 0 -19 0 -130 0 -145 0 -44 1 -213 0 -265 -1 -33
-1 -93 -2 -133 -3 -39 -1 -72 1 -72 5 0 4 -7 5 -16 1 -23 -8 -345 -9 -351 0
-2 4 -12 4 -21 -1 -14 -6 -116 -8 -132 -2 -14 5 -50 6 -50 1 0 -3 -37 -5 -82
-4 -90 3 -139 3 -178 0 -14 -2 -33 1 -42 6 -10 4 -18 4 -18 0 0 -4 -37 -7 -82
-6 -46 2 -99 3 -118 2 -19 0 -79 -1 -133 -2 -55 -1 -101 1 -104 6 -2 4 -9 4
-15 1 -14 -9 -139 -11 -144 -2 -2 3 -17 3 -32 -1 -30 -7 -135 -6 -158 3 -8 3
-14 2 -14 -2 0 -4 -52 -7 -115 -7 -63 0 -115 4 -115 8 0 5 -5 5 -11 1 -14 -8
-341 -10 -355 -2 -5 4 -15 3 -22 -1z m6698 -1681 c0 -3 11 -5 25 -5 14 0 25 4
25 8 0 5 5 5 11 1 6 -3 55 -8 108 -10 53 -2 123 -6 156 -9 33 -2 83 -6 111 -9
28 -2 78 -9 110 -16 67 -14 217 -69 222 -82 2 -4 8 -8 14 -8 21 0 126 -87 174
-145 27 -33 64 -87 82 -120 28 -56 37 -84 58 -185 11 -53 6 -315 -6 -327 -3
-3 -3 -5 -14 -48 -38 -147 -204 -327 -363 -396 -83 -36 -163 -58 -163 -45 0 7
-3 7 -8 1 -4 -5 -12 -11 -19 -12 -61 -12 -154 -21 -293 -29 -183 -11 -909 -11
-912 0 -3 10 -2 1403 1 1432 1 11 681 15 681 4z m-3632 -1880 c-1 -951 -2
-1730 -4 -1730 -1 0 -24 28 -50 63 -26 34 -54 68 -62 75 -9 6 -13 12 -9 12 4
0 -2 10 -12 23 -11 12 -123 157 -250 322 -127 165 -240 311 -251 323 -11 13
-20 28 -20 33 0 5 -4 9 -8 9 -4 0 -15 12 -24 28 -9 15 -28 41 -42 57 -15 17
-48 58 -74 93 -26 35 -67 89 -92 121 -25 31 -56 72 -70 90 -14 18 -31 39 -37
46 -7 8 -13 16 -13 19 0 3 -7 14 -16 24 -8 9 -43 53 -77 97 -34 44 -67 86 -74
93 -7 7 -13 17 -13 21 0 5 -13 22 -30 39 -16 18 -30 34 -30 37 0 5 -25 36 -47
60 -7 8 -13 16 -13 19 0 3 -9 16 -19 28 -43 50 -57 67 -71 89 -8 12 -23 31
-32 41 -10 10 -18 20 -18 23 0 3 -7 13 -15 22 -8 10 -30 38 -49 63 l-35 45 52
49 c28 26 92 85 140 130 49 44 112 104 141 131 157 148 198 185 207 185 6 0 7
5 4 10 -3 6 -3 10 2 10 4 0 41 32 82 70 40 39 75 70 76 70 1 0 27 24 57 53 30
28 104 97 163 152 60 55 123 114 140 130 46 43 156 145 274 255 57 52 128 119
159 148 31 28 57 52 58 52 1 0 2 -778 2 -1730z"/>
</g>
</svg>
